<svg width="74" height="39" viewBox="0 0 74 39" fill="none" xmlns="http://www.w3.org/2000/svg">
<path d="M60.3056 5.59004C64.3592 5.59004 67.6544 8.97023 67.6544 12.9388C67.6544 16.9074 64.3592 20.2876 60.3056 20.2876C56.252 20.2876 52.9568 16.9074 52.9568 12.9388C52.9568 8.97023 56.252 5.59004 60.3056 5.59004ZM60.3056 0C53.0026 0 47.0791 5.79273 47.0791 12.9388C47.0791 20.0849 53.0026 25.8777 60.3056 25.8777C67.6086 25.8777 73.5321 20.0849 73.5321 12.9388C73.5321 5.79273 67.6086 0 60.3056 0Z" fill="white"/>
<path d="M13.2316 20.7649C8.69422 20.7649 5.11136 16.6394 6.02669 11.9385C6.60204 8.98984 9.04074 6.64921 12.0025 6.16539C14.7681 5.71426 17.3114 6.82573 18.8936 8.75446C19.3447 9.30366 20.1097 9.48673 20.7243 9.13368L23.6206 7.47955C24.2287 7.13303 24.4052 6.33539 23.9998 5.76658C21.3258 2.00719 16.7426 -0.300751 11.656 0.287675C5.62787 0.98071 0.75701 5.87771 0.0835895 11.9058C-0.799049 19.8888 5.42519 26.6426 13.2251 26.6426C18.1156 26.6426 22.3784 23.9816 24.6667 20.0326C25.0198 19.4246 24.7713 18.6531 24.1306 18.3589L21.1296 16.999C20.4627 16.6982 19.6978 16.9467 19.2859 17.5482C17.9652 19.49 15.7423 20.7649 13.2186 20.7649" fill="white"/>
<path d="M68.341 33.0499L65.8369 30.4674C65.4381 30.062 64.7973 29.9901 64.3397 30.3235C60.5411 33.1153 54.6372 33.0826 51.6166 32.1803C48.2364 31.167 44.732 29.3951 41.6787 27.1983C42.5091 26.1457 43.2087 24.9885 43.7121 23.7332C45.0066 20.5164 44.4705 17.3324 42.2476 14.9983C40.783 13.4684 37.1871 11.7097 33.395 12.9977C30.8648 13.8607 28.2626 16.2732 27.8246 19.9999C27.7396 20.693 28.3019 21.301 29.0014 21.301H32.3424C32.9897 21.301 33.5781 20.876 33.7481 20.2484C34.0227 19.2088 34.7549 18.6269 35.4807 18.4046C36.7033 18.032 37.6709 18.6792 37.9913 19.0584C38.5274 19.6926 38.5993 20.6668 38.2528 21.5429C36.5529 25.8842 29.9691 29.2382 24.889 30.8139C23.091 31.3696 17.0629 32.9715 9.26302 32.3046C8.37384 32.2327 7.87041 33.2984 8.49153 33.9391L11.7475 37.2996C12.1725 37.7377 12.7609 37.9796 13.3689 37.9731C19.5409 37.9273 24.5229 37.0774 26.6216 36.4235C28.5372 35.8286 33.1204 34.2202 37.174 31.3565C40.8419 33.9652 45.1505 36.162 49.4329 37.45C51.0086 37.9208 54.343 38.3588 56.069 38.3588C60.2468 38.3588 64.7843 37.5089 68.2102 34.7629C68.7463 34.3379 68.7921 33.5403 68.3214 33.0499" fill="#FAC000"/>
</svg>
